<?xml version="1.0" encoding="UTF-8"?>
<svg version="1.1" xmlns="http://www.w3.org/2000/svg" width="246" height="112">
<path d="M0 0 C1.52519276 0.08937803 3.04681929 0.24537146 4.5625 0.4375 C5.80193359 0.59025391 5.80193359 0.59025391 7.06640625 0.74609375 C7.70449219 0.82988281 8.34257812 0.91367187 9 1 C11.8921756 10.93495435 14.64858801 20.71313264 16 31 C16.17595703 30.46487793 16.35191406 29.92975586 16.53320312 29.37841797 C18.44519228 23.5987693 20.43191404 17.8506179 22.5 12.125 C22.79519531 11.28453125 23.09039062 10.4440625 23.39453125 9.578125 C23.68714844 8.77117188 23.97976562 7.96421875 24.28125 7.1328125 C24.66893555 6.04830811 24.66893555 6.04830811 25.06445312 4.94189453 C26.1149314 2.76143936 27.0915057 1.48818496 29 0 C32.4375 -0.1875 32.4375 -0.1875 36 1 C39.64044634 7.14370021 41.67024356 13.6983931 43.75 20.5 C44.06582031 21.51320313 44.38164062 22.52640625 44.70703125 23.5703125 C45.47746896 26.04505182 46.24162771 28.52154215 47 31 C47.19634033 30.13197754 47.39268066 29.26395508 47.5949707 28.36962891 C48.32906752 25.15064778 49.0738107 21.93452433 49.82592773 18.71972656 C50.14924666 17.32781669 50.46828853 15.93490612 50.78295898 14.54101562 C51.23601571 12.5375774 51.7043319 10.53824146 52.17578125 8.5390625 C52.59210815 6.73236084 52.59210815 6.73236084 53.0168457 4.88916016 C54 2 54 2 57 0 C60.0625 -0.25 60.0625 -0.25 63 0 C63.99 0.99 63.99 0.99 65 2 C64.46267072 11.69511389 61.29000065 21.51749177 58.94726562 30.90429688 C58.68236328 32.00708984 58.41746094 33.10988281 58.14453125 34.24609375 C57.90065674 35.23279053 57.65678223 36.2194873 57.40551758 37.23608398 C56.97484484 40.17145188 57.16776 42.16584397 58 45 C59.41754779 46.89845978 59.41754779 46.89845978 61.25 48.5 C61.88035156 49.09039062 62.51070312 49.68078125 63.16015625 50.2890625 C63.76730469 50.85367188 64.37445313 51.41828125 65 52 C65.886875 52.94875 66.77375 53.8975 67.6875 54.875 C69.99819001 57.33801559 69.99819001 57.33801559 74 58 C77.465 53.545 77.465 53.545 81 49 C79.35 48.67 77.7 48.34 76 48 C71.62263759 45.11094081 69.11175998 42.60124564 67.46875 37.4375 C65.8840513 29.19706678 66.36201334 21.54545381 70 14 C70.556875 12.7315625 70.556875 12.7315625 71.125 11.4375 C75.5774795 5.64927665 81.25207346 1.37039266 88.5390625 0.20703125 C103.48097612 -1.04998688 103.48097612 -1.04998688 109 2 C113.39487563 11.14006743 113.17942628 21.70482468 113.1875 31.625 C113.1887085 33.08377563 113.1887085 33.08377563 113.18994141 34.57202148 C113.13440979 41.59677062 113.13440979 41.59677062 112 45 C108.71303767 45.79953138 107.28976808 46.09658936 104 45 C104.350625 45.78375 104.70125 46.5675 105.0625 47.375 C105.371875 48.24125 105.68125 49.1075 106 50 C105.505 50.99 105.505 50.99 105 52 C104.9253895 54.57965796 104.90868623 57.1320702 104.9375 59.7109375 C104.94128662 60.47548248 104.94507324 61.24002747 104.94897461 62.02774048 C104.96534221 65.30339033 104.99341561 68.57891627 105.02050781 71.85449219 C105.03860395 74.24413475 105.05069399 76.63375691 105.0625 79.0234375 C105.07494751 80.13143204 105.07494751 80.13143204 105.08764648 81.2618103 C105.10379254 84.65391045 105.07091675 87.75879035 104 91 C98.89731442 92.17754283 94.10102242 92.11736682 89 91 C87.515 90.01 87.515 90.01 86 89 C85.34 89.66 84.68 90.32 84 91 C80.7421875 91.1953125 80.7421875 91.1953125 76.875 91.125 C74.95300781 91.09792969 74.95300781 91.09792969 72.9921875 91.0703125 C72.00476563 91.04710938 71.01734375 91.02390625 70 91 C69.67 90.01 69.34 89.02 69 88 C68.34 87.67 67.68 87.34 67 87 C67.99 83.7 68.98 80.4 70 77 C70.66 77 71.32 77 72 77 C71.67 75.68 71.34 74.36 71 73 C70.38125 72.855625 69.7625 72.71125 69.125 72.5625 C67 72 67 72 65 71 C64.67 77.6 64.34 84.2 64 91 C49.27396569 91.27270434 49.27396569 91.27270434 46 89 C45.67 88.34 45.34 87.68 45 87 C44.80535156 87.64324219 44.61070312 88.28648438 44.41015625 88.94921875 C43 91 43 91 39.99609375 91.64453125 C38.82175781 91.69996094 37.64742187 91.75539063 36.4375 91.8125 C35.26058594 91.88082031 34.08367187 91.94914062 32.87109375 92.01953125 C30 92 30 92 29 91 C28.92794489 89.31391034 28.91613932 87.62499341 28.9375 85.9375 C28.94652344 85.01839844 28.95554688 84.09929687 28.96484375 83.15234375 C28.97644531 82.44207031 28.98804688 81.73179688 29 81 C27.88625 80.9071875 27.88625 80.9071875 26.75 80.8125 C23.1814261 79.75814862 22.07754772 78.00090227 20 75 C21.31819487 71.0861843 22.86977144 68.81244032 25.875 66 C28.25240549 63.72595997 30.32506868 61.58938694 32.375 59 C32.91125 58.34 33.4475 57.68 34 57 C34.66 57 35.32 57 36 57 C36 56.34 36 55.68 36 55 C36.845625 54.319375 37.69125 53.63875 38.5625 52.9375 C41.15145839 50.39367154 41.15145839 50.39367154 41.14233398 48.12890625 C40.33870747 41.82141459 38.59667441 36.05359976 36.5 30.0625 C36.01853516 28.64614258 36.01853516 28.64614258 35.52734375 27.20117188 C33.96845756 22.51643072 33.96845756 22.51643072 32 18 C28.78889562 25.34776238 26.39714439 32.89989699 24.10693359 40.57348633 C23.86281738 41.37423584 23.61870117 42.17498535 23.3671875 43 C23.15175293 43.721875 22.93631836 44.44375 22.71435547 45.1875 C22 47 22 47 20 49 C17.3984375 49.1953125 17.3984375 49.1953125 14.375 49.125 C13.37210938 49.10695312 12.36921875 49.08890625 11.3359375 49.0703125 C10.17964844 49.03550781 10.17964844 49.03550781 9 49 C6.47108336 39.1521011 4.0806392 29.27157181 1.75 19.375 C1.47978027 18.24916504 1.20956055 17.12333008 0.93115234 15.96337891 C0.68059082 14.89007324 0.4300293 13.81676758 0.171875 12.7109375 C-0.0540332 11.75493652 -0.27994141 10.79893555 -0.51269531 9.81396484 C-1.03303426 6.80924205 -1.15270282 4.04361986 -1 1 C-0.67 0.67 -0.34 0.34 0 0 Z M82.25 14.875 C77.8003487 21.05507125 77.26044185 26.53718598 78 34 C79.09740024 37.09273361 79.09740024 37.09273361 81 39 C81.99 39.33 82.98 39.66 84 40 C84 40.66 84 41.32 84 42 C87.31317555 41.73136414 88.63876354 41.40940132 90.875 38.875 C92.30731738 35.21463337 91.8177236 32.79126394 91 29 C90.01 28.67 89.02 28.34 88 28 C90.2354755 24.64678674 90.81853011 24.48337213 94.5 23.4375 C98.12553244 22.40659345 98.12553244 22.40659345 101 20 C101.02207488 17.32186601 101.02207488 17.32186601 100.625 14.375 C100.51414062 13.37210938 100.40328125 12.36921875 100.2890625 11.3359375 C100.19367188 10.56507812 100.09828125 9.79421875 100 9 C92.44007049 8.54640423 87.72852148 9.14745482 82.25 14.875 Z M100 46 C101 49 101 49 101 49 Z M94 54 C91.87028052 56.06498617 91.87028052 56.06498617 89.6875 58.8125 C87.28205138 61.72624282 84.70930741 64.36810138 82 67 C83.0478328 70.14349841 83.57913668 70.73251185 86.0625 72.6875 C87.031875 73.450625 88.00125 74.21375 89 75 C90.29031381 72.80421762 90.29031381 72.80421762 89.9375 69.1875 C89.88097125 62.91280824 92.45070108 59.08732845 96 54 C95.34 54 94.68 54 94 54 Z M60 64 C60 64.99 60 65.98 60 67 C61.32 67.66 62.64 68.32 64 69 C62.6910428 65.87802522 62.6910428 65.87802522 60 64 Z M44 69 C44.33 72.63 44.66 76.26 45 80 C47.18490007 77.32357511 47.18490007 77.32357511 47 75 C47.66 75 48.32 75 49 75 C49 72.36 49 69.72 49 67 C47.40371521 66.9254644 47.40371521 66.9254644 44 69 Z M76 74 C77 76 77 76 77 76 Z M74 78 C73.67 78.66 73.34 79.32 73 80 C73.99 79.67 74.98 79.34 76 79 C75.34 78.67 74.68 78.34 74 78 Z M48 84 C49 86 49 86 49 86 Z " fill="#7DECCD" transform="translate(128,17)"/>
<path d="M0 0 C1.52519276 0.08937803 3.04681929 0.24537146 4.5625 0.4375 C5.80193359 0.59025391 5.80193359 0.59025391 7.06640625 0.74609375 C7.70449219 0.82988281 8.34257812 0.91367187 9 1 C11.8921756 10.93495435 14.64858801 20.71313264 16 31 C16.17595703 30.46487793 16.35191406 29.92975586 16.53320312 29.37841797 C18.44519228 23.5987693 20.43191404 17.8506179 22.5 12.125 C22.79519531 11.28453125 23.09039062 10.4440625 23.39453125 9.578125 C23.68714844 8.77117188 23.97976562 7.96421875 24.28125 7.1328125 C24.66893555 6.04830811 24.66893555 6.04830811 25.06445312 4.94189453 C26.1149314 2.76143936 27.0915057 1.48818496 29 0 C32.4375 -0.1875 32.4375 -0.1875 36 1 C39.64044634 7.14370021 41.67024356 13.6983931 43.75 20.5 C44.06582031 21.51320313 44.38164062 22.52640625 44.70703125 23.5703125 C45.47746896 26.04505182 46.24162771 28.52154215 47 31 C47.19634033 30.13197754 47.39268066 29.26395508 47.5949707 28.36962891 C48.32906752 25.15064778 49.0738107 21.93452433 49.82592773 18.71972656 C50.14924666 17.32781669 50.46828853 15.93490612 50.78295898 14.54101562 C51.23601571 12.5375774 51.7043319 10.53824146 52.17578125 8.5390625 C52.59210815 6.73236084 52.59210815 6.73236084 53.0168457 4.88916016 C54 2 54 2 57 0 C60.0625 -0.25 60.0625 -0.25 63 0 C63.99 0.99 63.99 0.99 65 2 C64.86767578 4.35009766 64.86767578 4.35009766 64.3203125 7.2890625 C64.11954102 8.36833008 63.91876953 9.44759766 63.71191406 10.55957031 C62.30701329 17.34896048 60.67874059 24.08153273 59.03515625 30.81640625 C58.77347656 31.91597656 58.51179688 33.01554687 58.2421875 34.1484375 C58.0035498 35.12989746 57.76491211 36.11135742 57.51904297 37.12255859 C56.97465587 40.14050139 56.90981627 42.93999238 57 46 C55.68 45.34 54.36 44.68 53 44 C53 43.34 53 42.68 53 42 C50.24927823 43.52817876 48.04684208 44.95315792 45.8125 47.1875 C45.214375 47.785625 44.61625 48.38375 44 49 C43.34 49 42.68 49 42 49 C41.69707031 47.85144531 41.39414063 46.70289063 41.08203125 45.51953125 C38.55500999 36.09684352 35.74589169 27.02201998 32 18 C28.78889562 25.34776238 26.39714439 32.89989699 24.10693359 40.57348633 C23.86281738 41.37423584 23.61870117 42.17498535 23.3671875 43 C23.15175293 43.721875 22.93631836 44.44375 22.71435547 45.1875 C22 47 22 47 20 49 C17.3984375 49.1953125 17.3984375 49.1953125 14.375 49.125 C13.37210938 49.10695312 12.36921875 49.08890625 11.3359375 49.0703125 C10.17964844 49.03550781 10.17964844 49.03550781 9 49 C6.47108336 39.1521011 4.0806392 29.27157181 1.75 19.375 C1.47978027 18.24916504 1.20956055 17.12333008 0.93115234 15.96337891 C0.68059082 14.89007324 0.4300293 13.81676758 0.171875 12.7109375 C-0.0540332 11.75493652 -0.27994141 10.79893555 -0.51269531 9.81396484 C-1.03303426 6.80924205 -1.15270282 4.04361986 -1 1 C-0.67 0.67 -0.34 0.34 0 0 Z " fill="#2F3438" transform="translate(128,17)"/>
<path d="M0 0 C1.29164062 0.17144531 2.58328125 0.34289062 3.9140625 0.51953125 C6.83578201 1.08342971 8.85517884 1.67177001 11.375 3.1875 C12.035 2.5275 12.695 1.8675 13.375 1.1875 C16.8125 0.4375 16.8125 0.4375 20.375 0.1875 C21.365 0.8475 22.355 1.5075 23.375 2.1875 C23.61733294 5.19392499 23.67230879 7.98628849 23.58984375 10.98828125 C23.57062111 12.32237785 23.57062111 12.32237785 23.55101013 13.6834259 C23.50658173 16.51857252 23.44119731 19.35278691 23.375 22.1875 C23.34393512 23.97963322 23.31412439 25.77178868 23.28564453 27.56396484 C23.21116648 31.95362535 23.11286884 36.34230151 23.00268555 40.73120117 C22.93590123 43.43984289 22.87708406 46.14859469 22.81835938 48.85742188 C22.77651852 50.58594911 22.7342197 52.31446533 22.69140625 54.04296875 C22.66633751 55.25354195 22.66633751 55.25354195 22.64076233 56.48857117 C22.48946756 62.07303244 22.48946756 62.07303244 21.375 63.1875 C18.70441149 63.32865161 16.05067762 63.22997107 13.375 63.1875 C12.10030593 60.63811185 12.25483816 58.85709002 12.26147461 56.00341797 C12.26155014 54.92244843 12.26162567 53.84147888 12.26170349 52.72775269 C12.26686478 51.55689117 12.27202606 50.38602966 12.27734375 49.1796875 C12.2787587 47.98393097 12.28017365 46.78817444 12.28163147 45.55618286 C12.28724337 41.72493013 12.29979792 37.89373516 12.3125 34.0625 C12.31751347 31.47005293 12.32207664 28.87760494 12.32617188 26.28515625 C12.33721667 19.91925102 12.35396641 13.55337963 12.375 7.1875 C11.79089355 7.51492188 11.20678711 7.84234375 10.60498047 8.1796875 C6.76348537 9.9158044 2.53211214 9.26290305 -1.60546875 9.109375 C-6.02527145 9.00949245 -9.6243691 9.22617121 -13.625 11.1875 C-14.94086766 13.21358544 -14.94086766 13.21358544 -15.4375 15.625 C-15.65019531 16.40746094 -15.86289062 17.18992187 -16.08203125 17.99609375 C-16.26121094 18.71925781 -16.44039062 19.44242188 -16.625 20.1875 C-16.955 21.1775 -17.285 22.1675 -17.625 23.1875 C-16.42101562 23.22488281 -15.21703125 23.26226563 -13.9765625 23.30078125 C-12.40100989 23.36642928 -10.82549046 23.43287701 -9.25 23.5 C-8.4559375 23.52255859 -7.661875 23.54511719 -6.84375 23.56835938 C-4.76284419 23.66535075 -2.69058668 23.91744825 -0.625 24.1875 C0.035 25.1775 0.695 26.1675 1.375 27.1875 C0.88 29.6625 0.88 29.6625 0.375 32.1875 C-8.04 32.6825 -8.04 32.6825 -16.625 33.1875 C-16.60179688 35.01796875 -16.57859375 36.8484375 -16.5546875 38.734375 C-16.53592939 41.13541259 -16.51772924 43.53645459 -16.5 45.9375 C-16.48324219 47.1440625 -16.46648438 48.350625 -16.44921875 49.59375 C-16.44277344 50.75390625 -16.43632812 51.9140625 -16.4296875 53.109375 C-16.41921387 54.17768555 -16.40874023 55.24599609 -16.39794922 56.34667969 C-16.62338481 59.16729105 -17.16651006 60.79537463 -18.625 63.1875 C-24.77734375 63.28515625 -24.77734375 63.28515625 -26.625 63.1875 C-28.48465075 61.32784925 -27.86587549 58.23860881 -27.94140625 55.74609375 C-28.00424805 53.78833008 -28.00424805 53.78833008 -28.06835938 51.79101562 C-28.10817608 50.4023467 -28.14788825 49.01367478 -28.1875 47.625 C-28.23067989 46.23240817 -28.274294 44.83982972 -28.31835938 43.44726562 C-28.42485876 40.02745199 -28.52686923 36.60756237 -28.625 33.1875 C-30.935 32.5275 -33.245 31.8675 -35.625 31.1875 C-35.75 28.3125 -35.75 28.3125 -35.625 25.1875 C-33.26546906 22.82796906 -31.84604383 22.69608587 -28.625 22.1875 C-28.46644531 21.31867187 -28.30789062 20.44984375 -28.14453125 19.5546875 C-25.72204849 7.58949643 -25.72204849 7.58949643 -20.625 3.1875 C-13.60224088 -0.51540935 -7.79020816 -1.08500895 0 0 Z " fill="#31363A" transform="translate(44.625,2.8125)"/>
<path d="M0 0 C4.90584817 3.56319498 8.3212261 7.45225263 10.6640625 13.0546875 C12.04304933 21.78827074 11.15420893 28.56936294 7.2265625 36.6171875 C3.23939757 41.68196457 -2.37791792 45.3854578 -8.7734375 46.6171875 C-16.65353725 47.26248701 -24.13901892 46.92093144 -30.74609375 42.2109375 C-36.03533846 37.44949428 -38.95176273 31.55657333 -40.1171875 24.55078125 C-40.49634421 16.73067417 -38.03896445 9.67392051 -33.0859375 3.6796875 C-24.28029372 -5.34928783 -10.90588216 -6.28775616 0 0 Z M-23.7734375 7.6171875 C-28.93634121 13.97153053 -29.39762445 19.69568769 -28.7734375 27.6171875 C-27.14773313 32.32317384 -25.1080919 35.12706689 -20.7734375 37.6171875 C-16.01869847 38.77804352 -12.08832954 39.03113499 -7.3984375 37.5546875 C-3.78811405 34.88992495 -1.6882157 31.904133 -0.0234375 27.7421875 C0.74615419 21.20065813 0.63965142 15.40404127 -2.7734375 9.6171875 C-9.16399875 3.95282639 -16.5171086 3.21606628 -23.7734375 7.6171875 Z " fill="#303538" transform="translate(112.7734375,20.3828125)"/>
<path d="M0 0 C4.67692308 1.47692308 4.67692308 1.47692308 6.3125 4.125 C6.539375 4.74375 6.76625 5.3625 7 6 C4 7 4 7 1 6 C1.5259375 7.175625 1.5259375 7.175625 2.0625 8.375 C2.371875 9.24125 2.68125 10.1075 3 11 C2.67 11.66 2.34 12.32 2 13 C1.9253895 15.57965796 1.90868623 18.1320702 1.9375 20.7109375 C1.94128662 21.47548248 1.94507324 22.24002747 1.94897461 23.02774048 C1.96534221 26.30339033 1.99341561 29.57891627 2.02050781 32.85449219 C2.03860395 35.24413475 2.05069399 37.63375691 2.0625 40.0234375 C2.07079834 40.76210052 2.07909668 41.50076355 2.08764648 42.2618103 C2.10379254 45.65391045 2.07091675 48.75879035 1 52 C-4.10268558 53.17754283 -8.89897758 53.11736682 -14 52 C-14.99 51.34 -15.98 50.68 -17 50 C-17.66 50.66 -18.32 51.32 -19 52 C-22.2578125 52.1953125 -22.2578125 52.1953125 -26.125 52.125 C-28.04699219 52.09792969 -28.04699219 52.09792969 -30.0078125 52.0703125 C-30.99523437 52.04710937 -31.98265625 52.02390625 -33 52 C-33.495 50.515 -33.495 50.515 -34 49 C-34.66 48.67 -35.32 48.34 -36 48 C-35.01 44.7 -34.02 41.4 -33 38 C-32.34 38 -31.68 38 -31 38 C-31.495 36.515 -31.495 36.515 -32 35 C-30.824375 34.38125 -30.824375 34.38125 -29.625 33.75 C-26.78445447 31.85630298 -26.39953485 30.97401156 -25 28 C-23.3540349 26.31288577 -21.68762851 24.6454378 -20 23 C-19.34 22.01 -18.68 21.02 -18 20 C-17.34 20 -16.68 20 -16 20 C-15.72671875 19.40977051 -15.4534375 18.81954102 -15.171875 18.21142578 C-14.03598069 16.06789857 -12.83470284 14.44417521 -11.25 12.6171875 C-10.7240625 12.00746094 -10.198125 11.39773437 -9.65625 10.76953125 C-9.1096875 10.14433594 -8.563125 9.51914063 -8 8.875 C-7.4534375 8.24207031 -6.906875 7.60914063 -6.34375 6.95703125 C-4.27933167 4.57384244 -2.23028116 2.23028116 0 0 Z M-3 7 C-2 10 -2 10 -2 10 Z M-9 15 C-11.12971948 17.06498617 -11.12971948 17.06498617 -13.3125 19.8125 C-15.71794862 22.72624282 -18.29069259 25.36810138 -21 28 C-19.9521672 31.14349841 -19.42086332 31.73251185 -16.9375 33.6875 C-15.968125 34.450625 -14.99875 35.21375 -14 36 C-12.70968619 33.80421762 -12.70968619 33.80421762 -13.0625 30.1875 C-13.11902875 23.91280824 -10.54929892 20.08732845 -7 15 C-7.66 15 -8.32 15 -9 15 Z M-27 35 C-26 37 -26 37 -26 37 Z M-29 39 C-29.33 39.66 -29.66 40.32 -30 41 C-29.01 40.67 -28.02 40.34 -27 40 C-27.66 39.67 -28.32 39.34 -29 39 Z " fill="#65CDB3" transform="translate(231,56)"/>
<path d="M0 0 C2.00044823 3.88819515 2.36267071 7.48406674 2.625 11.8125 C2.69976562 12.97394531 2.77453125 14.13539062 2.8515625 15.33203125 C2.90054688 16.21246094 2.94953125 17.09289062 3 18 C-1.81220611 19.6040687 -3.86888386 20.02622323 -9 19 C-9 15.04 -9 11.08 -9 7 C-19.23162131 8.02694201 -19.23162131 8.02694201 -27 14 C-30.45073637 19.75122729 -30.77664252 25.37810063 -30 32 C-28.62747293 35.11937969 -28.020457 36.4897715 -25 38 C-25 38.66 -25 39.32 -25 40 C-24.01 40 -23.02 40 -22 40 C-22.51032394 43.77639718 -23.20766929 45.44722581 -26 48 C-32.58480695 46.36455775 -36.26532088 44.77177682 -40 39 C-42.9177674 31.63366469 -43.40840013 23.03259719 -40.6875 15.5 C-40.130625 14.345 -39.57375 13.19 -39 12 C-38.62875 11.154375 -38.2575 10.30875 -37.875 9.4375 C-33.4225205 3.64927665 -27.74792654 -0.62960734 -20.4609375 -1.79296875 C-5.51902388 -3.04998688 -5.51902388 -3.04998688 0 0 Z " fill="#2F3538" transform="translate(237,19)"/>
<path d="M0 0 C0.02900455 3.6041498 0.04680018 7.20826962 0.0625 10.8125 C0.07087891 11.83666016 0.07925781 12.86082031 0.08789062 13.91601562 C0.09111328 14.89892578 0.09433594 15.88183594 0.09765625 16.89453125 C0.10289307 17.80050049 0.10812988 18.70646973 0.11352539 19.63989258 C0 22 0 22 -1 25 C-3 25 -3 25 -5.625 22.5 C-6.40875 21.675 -7.1925 20.85 -8 20 C-14.90214312 22.83285239 -19.81804571 30.12972277 -23.9375 36.125 C-24.618125 37.07375 -25.29875 38.0225 -26 39 C-26.66 39 -27.32 39 -28 39 C-28.268125 39.5775 -28.53625 40.155 -28.8125 40.75 C-30.02929189 43.05550043 -31.30333879 45.02056192 -33 47 C-33.66 47 -34.32 47 -35 47 C-35.28875 47.78375 -35.5775 48.5675 -35.875 49.375 C-37 52 -37 52 -39 54 C-41.125 53.625 -41.125 53.625 -43 53 C-43.12375 52.071875 -43.12375 52.071875 -43.25 51.125 C-43.81258459 48.81562433 -43.81258459 48.81562433 -46.0625 47.75 C-46.701875 47.5025 -47.34125 47.255 -48 47 C-48 46.34 -48 45.68 -48 45 C-48.66 45 -49.32 45 -50 45 C-50 44.01 -50 43.02 -50 42 C-46.62902617 40.50178941 -44.79557881 40 -41 40 C-39.15395753 39.19340286 -39.15395753 39.19340286 -37.4375 38.0625 C-35.2171647 36.68282617 -33.52685405 35.84228468 -31 35 C-30.58297555 33.43615831 -30.17584891 31.86924089 -29.80859375 30.29296875 C-28.72940424 27.23265841 -27.04743867 24.73811112 -25.3125 22 C-22.30426872 17.23749973 -22.30426872 17.23749973 -21.9375 11.8125 C-22.68352156 8.87546166 -22.68352156 8.87546166 -25 8 C-24.32421875 6.10546875 -24.32421875 6.10546875 -23 4 C-20.64453125 2.98828125 -20.64453125 2.98828125 -17.8125 2.3125 C-16.33330078 1.95671875 -16.33330078 1.95671875 -14.82421875 1.59375 C-9.82109803 0.54191826 -5.10376567 -0.04325225 0 0 Z " fill="#76E3C4" transform="translate(241,37)"/>
<path d="M0 0 C0.02474322 5.05370732 0.04288053 10.10737926 0.05493164 15.16113281 C0.0599563 16.87988906 0.0667771 18.59864105 0.07543945 20.31738281 C0.0875868 22.78972426 0.09324703 25.26200912 0.09765625 27.734375 C0.10281754 28.50118591 0.10797882 29.26799683 0.11329651 30.05804443 C0.11402511 37.00771422 0.11402511 37.00771422 -1 40 C-3.75078884 40.91692961 -5.35948913 41.10886083 -8.1875 41.0625 C-9.445625 41.041875 -10.70375 41.02125 -12 41 C-12.39467336 36.93916015 -12.76227989 32.87630863 -13.125 28.8125 C-13.23714844 27.66201172 -13.34929687 26.51152344 -13.46484375 25.32617188 C-13.56152344 24.21435547 -13.65820312 23.10253906 -13.7578125 21.95703125 C-13.8520752 20.93585205 -13.94633789 19.91467285 -14.04345703 18.86254883 C-13.96634502 13.78311996 -11.94379013 10.570596 -8.625 6.875 C-8.03976563 6.21242188 -7.45453125 5.54984375 -6.8515625 4.8671875 C-2.0251046 0 -2.0251046 0 0 0 Z " fill="#7EEFCD" transform="translate(231,66)"/>
<path d="M0 0 C1.03125 -0.0103125 2.0625 -0.020625 3.125 -0.03125 C6.64586907 0.61934537 7.83173114 1.70124161 10 4.5 C10.4375 7.125 10.4375 7.125 10 9.5 C9.01 10.16 8.02 10.82 7 11.5 C7.680625 12.180625 8.36125 12.86125 9.0625 13.5625 C11 16.5 11 16.5 10.9375 20.125 C9.99814245 23.50668719 9.6759027 24.44667869 7 26.5 C2.67654816 27.59185479 -1.59708142 27.82834265 -5.9375 26.8125 C-8.38225908 25.25674422 -9.66915076 24.0877624 -11 21.5 C-10.6875 18.75 -10.6875 18.75 -10 16.5 C-8.68 16.5 -7.36 16.5 -6 16.5 C-6 15.84 -6 15.18 -6 14.5 C-7.32 13.84 -8.64 13.18 -10 12.5 C-10.48894063 5.16589057 -10.48894063 5.16589057 -8.359375 2.265625 C-5.38794767 0.04197408 -3.6814417 -0.03681442 0 0 Z M-3 6.5 C-3 7.49 -3 8.48 -3 9.5 C-0.03 9.995 -0.03 9.995 3 10.5 C3 9.18 3 7.86 3 6.5 C1.02 6.5 -0.96 6.5 -3 6.5 Z M-5 15.5 C-4.67 17.15 -4.34 18.8 -4 20.5 C-1.69 20.5 0.62 20.5 3 20.5 C3.33 19.51 3.66 18.52 4 17.5 C0.95086772 16.48888907 0.95086772 16.48888907 -2 17.5 C-2 16.84 -2 16.18 -2 15.5 C-2.99 15.5 -3.98 15.5 -5 15.5 Z " fill="#F2F3F5" transform="translate(28,81.5)"/>
<path d="M0 0 C3.34107069 1.76880213 4.53978474 2.72555775 5.8125 6.25 C6.23854898 12.49871831 6.62569675 18.17780286 4 24 C-0.89128318 27.26085546 -4.91063474 27.24770005 -10.66796875 26.8125 C-14.08411948 25.62228333 -15.17018753 24.09914185 -17 21 C-17.42156306 18.16244449 -17.60675574 15.82195395 -17.5625 13 C-17.58634766 12.30132812 -17.61019531 11.60265625 -17.63476562 10.8828125 C-17.6239494 7.06107944 -17.10233034 5.14044978 -14.83984375 2.03515625 C-10.12859403 -1.34113138 -5.56744448 -0.83165146 0 0 Z M-10 7 C-10.12514928 8.97619447 -10.1757276 10.95738173 -10.1875 12.9375 C-10.20167969 14.01902344 -10.21585937 15.10054687 -10.23046875 16.21484375 C-10.29048031 19.14044315 -10.29048031 19.14044315 -8 21 C-5.5 21.33333333 -5.5 21.33333333 -3 21 C-0.70951969 19.14044315 -0.70951969 19.14044315 -0.76953125 16.21484375 C-0.78371094 15.13332031 -0.79789063 14.05179688 -0.8125 12.9375 C-0.81894531 11.85339844 -0.82539062 10.76929687 -0.83203125 9.65234375 C-0.70168893 7.07797685 -0.70168893 7.07797685 -2 6 C-6.3162525 5.45733887 -6.3162525 5.45733887 -10 7 Z " fill="#FAF9FB" transform="translate(78,82)"/>
<path d="M0 0 C2.31 0 4.62 0 7 0 C7 2.64 7 5.28 7 8 C10.62511368 5.28729756 10.62511368 5.28729756 13.375 1.75 C15 0 15 0 18.6875 -0.25 C19.780625 -0.1675 20.87375 -0.085 22 0 C20.22054913 4.04420651 17.60470327 7.46078487 15 11 C15.5775 11.99902344 16.155 12.99804688 16.75 14.02734375 C17.50011259 15.33066437 18.25010648 16.63405332 19 17.9375 C19.3815625 18.59685547 19.763125 19.25621094 20.15625 19.93554688 C23 24.88671875 23 24.88671875 23 26 C17.75065617 26.52493438 17.75065617 26.52493438 15 26 C11 21.4 11 21.4 11 18 C9.68 18 8.36 18 7 18 C7 20.64 7 23.28 7 26 C4.69 26 2.38 26 0 26 C0 17.42 0 8.84 0 0 Z " fill="#F7F9F9" transform="translate(111,82)"/>
<path d="M0 0 C2.28515625 1.3046875 2.28515625 1.3046875 4 3 C4.75 6.6875 4.75 6.6875 5 10 C2.125 10.1875 2.125 10.1875 -1 10 C-1.66 9.01 -2.32 8.02 -3 7 C-6.08365871 6.7497843 -6.08365871 6.7497843 -9 7 C-9.02686553 8.97909398 -9.04633375 10.95828971 -9.0625 12.9375 C-9.07410156 14.03964844 -9.08570312 15.14179687 -9.09765625 16.27734375 C-9.31262571 18.91447634 -9.31262571 18.91447634 -8 20 C-6.33382885 20.04063832 -4.66611905 20.042721 -3 20 C-2.34 18.68 -1.68 17.36 -1 16 C0.98 16 2.96 16 5 16 C4.3891495 22.4750153 4.3891495 22.4750153 2.7578125 24.67578125 C-0.64831227 27.24172858 -4.86137069 27.10941944 -9 27 C-12.24496494 25.89902975 -14.21033324 25.21987947 -16.08984375 22.31640625 C-18.1367674 17.10685378 -18.44221939 11.53735588 -18 6 C-14.59289234 -0.88594391 -6.85710557 -1.35461963 0 0 Z " fill="#F7F7F9" transform="translate(103,82)"/>
<path d="M0 0 C0.99 0.66 1.98 1.32 3 2 C3.66 1.67 4.32 1.34 5 1 C5 7.55186956 2.27485651 10.45233637 -2.1875 15.08203125 C-4.05927894 16.87748224 -4.05927894 16.87748224 -5 19 C-5.66 19 -6.32 19 -7 19 C-7.268125 19.5775 -7.53625 20.155 -7.8125 20.75 C-9.02929189 23.05550043 -10.30333879 25.02056192 -12 27 C-12.66 27 -13.32 27 -14 27 C-14.28875 27.78375 -14.5775 28.5675 -14.875 29.375 C-16 32 -16 32 -18 34 C-20.125 33.625 -20.125 33.625 -22 33 C-22.12375 32.071875 -22.12375 32.071875 -22.25 31.125 C-22.81258459 28.81562433 -22.81258459 28.81562433 -25.0625 27.75 C-25.701875 27.5025 -26.34125 27.255 -27 27 C-27 26.34 -27 25.68 -27 25 C-27.66 25 -28.32 25 -29 25 C-29 24.01 -29 23.02 -29 22 C-25.62902617 20.50178941 -23.79557881 20 -20 20 C-18.15395753 19.19340286 -18.15395753 19.19340286 -16.4375 18.0625 C-14.2171647 16.68282617 -12.52685405 15.84228468 -10 15 C-9.690625 13.865625 -9.38125 12.73125 -9.0625 11.5625 C-8 8 -8 8 -5.9375 6.8125 C-4.9784375 6.4103125 -4.9784375 6.4103125 -4 6 C-3.6278958 4.67696283 -3.29369827 3.34262065 -3 2 C-2.01 1.34 -1.02 0.68 0 0 Z " fill="#7BF0CD" transform="translate(220,57)"/>
<path d="M0 0 C2.31 0.33 4.62 0.66 7 1 C8.1875 2.8125 8.1875 2.8125 9 5 C9.67160156 5.51433594 10.34320313 6.02867188 11.03515625 6.55859375 C14.00427158 10.24785237 13.436227 13.66595069 13.25 18.25 C13.23195312 19.09046875 13.21390625 19.9309375 13.1953125 20.796875 C13.14830798 22.86507395 13.07656724 24.93268441 13 27 C8.71 27 4.42 27 0 27 C0 18.09 0 9.18 0 0 Z " fill="#7FEFCE" transform="translate(179,81)"/>
<path d="M0 0 C3.38362655 0.74132182 5.16428509 1.72541153 7.75 4.0625 C8.67039063 4.88427734 8.67039063 4.88427734 9.609375 5.72265625 C10.06828125 6.14417969 10.5271875 6.56570312 11 7 C10.34 8.32 9.68 9.64 9 11 C6.36 10.34 3.72 9.68 1 9 C1 17.91 1 26.82 1 36 C-4 34 -4 34 -5 32 C-5.66 32.99 -6.32 33.98 -7 35 C-7.33 29.06 -7.66 23.12 -8 17 C-9.65 17.33 -11.3 17.66 -13 18 C-12.68423915 12.59132214 -9.52468969 9.86488188 -5.9375 6.1875 C-5.08575195 5.2912793 -5.08575195 5.2912793 -4.21679688 4.37695312 C-2.81990517 2.90962991 -1.41109872 1.4536658 0 0 Z M-6 14 C-5.67 17.63 -5.34 21.26 -5 25 C-2.81509993 22.32357511 -2.81509993 22.32357511 -3 20 C-2.34 20 -1.68 20 -1 20 C-1 17.36 -1 14.72 -1 12 C-2.59628479 11.9254644 -2.59628479 11.9254644 -6 14 Z M-2 29 C-1 31 -1 31 -1 31 Z " fill="#61D4B4" transform="translate(178,72)"/>
<path d="M0 0 C3.458176 -0.0868329 6.91607344 -0.14033282 10.375 -0.1875 C11.35984375 -0.21263672 12.3446875 -0.23777344 13.359375 -0.26367188 C14.77089844 -0.27817383 14.77089844 -0.27817383 16.2109375 -0.29296875 C17.08024902 -0.3086792 17.94956055 -0.32438965 18.84521484 -0.34057617 C19.55629395 -0.22818604 20.26737305 -0.1157959 21 0 C21.66 0.99 22.32 1.98 23 3 C22.01 4.485 22.01 4.485 21 6 C18.69 6 16.38 6 14 6 C14 12.6 14 19.2 14 26 C12.02 26 10.04 26 8 26 C6.99073521 21.84373632 6.89760421 17.95634906 6.9375 13.6875 C6.94652344 12.43324219 6.95554687 11.17898437 6.96484375 9.88671875 C6.97644531 8.93410156 6.98804688 7.98148437 7 7 C5.5459375 7.0309375 5.5459375 7.0309375 4.0625 7.0625 C1 7 1 7 0 6 C-0.04080783 4.00041636 -0.04254356 1.99954746 0 0 Z " fill="#F5F6F8" transform="translate(39,82)"/>
<path d="M0 0 C0.33 0.99 0.66 1.98 1 3 C2.98 2.67 4.96 2.34 7 2 C7 8.27 7 14.54 7 21 C4.875625 21.185625 2.75125 21.37125 0.5625 21.5625 C-0.63246094 21.66691406 -1.82742187 21.77132812 -3.05859375 21.87890625 C-4.51458984 21.93884766 -4.51458984 21.93884766 -6 22 C-7 21 -7 21 -7.09765625 18.71484375 C-7.08025391 17.34005859 -7.08025391 17.34005859 -7.0625 15.9375 C-7.05347656 15.01839844 -7.04445312 14.09929687 -7.03515625 13.15234375 C-7.02355469 12.44207031 -7.01195312 11.73179688 -7 11 C-7.66 11 -8.32 11 -9 11 C-7.59155282 7.78475695 -5.89655214 5.67816132 -3.375 3.25 C-2.74335938 2.63640625 -2.11171875 2.0228125 -1.4609375 1.390625 C-0.73777344 0.70226562 -0.73777344 0.70226562 0 0 Z " fill="#7DF1CE" transform="translate(164,87)"/>
<path d="M0 0 C0 6.6 0 13.2 0 20 C-0.66 20 -1.32 20 -2 20 C-2 13.4 -2 6.8 -2 0 C-3.98 0.33 -5.96 0.66 -8 1 C-8.00808685 1.69713104 -8.01617371 2.39426208 -8.02450562 3.11251831 C-8.10237717 9.67545302 -8.18964489 16.23818718 -8.28752708 22.80085564 C-8.33751898 26.17497504 -8.38384837 29.54906269 -8.421875 32.92333984 C-8.46737328 36.80064629 -8.52539279 40.67759052 -8.5859375 44.5546875 C-8.59748871 45.76929657 -8.60903992 46.98390564 -8.62094116 48.23532104 C-8.64081085 49.35633209 -8.66068054 50.47734314 -8.68115234 51.63232422 C-8.69447601 52.62271698 -8.70779968 53.61310974 -8.7215271 54.6335144 C-9 57 -9 57 -11 59 C-11 41.18 -11 23.36 -11 5 C-12.98 5.99 -12.98 5.99 -15 7 C-17.66172159 7.11584988 -20.22043521 7.14286756 -22.875 7.0625 C-27.69850308 6.9416887 -32.24784932 7.03914195 -37 8 C-36 6 -36 6 -34.27734375 5.3828125 C-31.66931759 4.94441359 -29.2072284 4.86766372 -26.5625 4.875 C-25.63566406 4.87242188 -24.70882812 4.86984375 -23.75390625 4.8671875 C-21.07134019 4.99655948 -18.61431282 5.40217166 -16 6 C-16 4.02 -16 2.04 -16 0 C-15.38125 0.20625 -14.7625 0.4125 -14.125 0.625 C-13.073125 0.810625 -13.073125 0.810625 -12 1 C-11.34 0.34 -10.68 -0.32 -10 -1 C-5.56588858 -2.43809019 -4.70477935 -1.88191174 0 0 Z " fill="#252830" transform="translate(68,5)"/>
<path d="M0 0 C4.18291278 3.50786057 8.19020752 7.08135631 12 11 C12.66 11.66 13.32 12.32 14 13 C17.05899225 13.35315902 17.05899225 13.35315902 18.75390625 11.25 C19.35074219 10.5075 19.94757813 9.765 20.5625 9 C21.66681134 7.63207885 22.80528512 6.28971631 24 5 C24.66 5 25.32 5 26 5 C25.91979855 7.80705084 25.54452763 9.48206883 23.48046875 11.4453125 C18.65625 15 18.65625 15 15 15 C14.67 15.66 14.34 16.32 14 17 C13.236875 16.814375 12.47375 16.62875 11.6875 16.4375 C8.91032625 15.77180827 8.91032625 15.77180827 6 17 C6 17.99 6 18.98 6 20 C6.66 20 7.32 20 8 20 C10.88277668 22.44599233 12.45912682 24.21388773 13 28 C10.525 27.01 10.525 27.01 8 26 C8 26.66 8 27.32 8 28 C4.2047869 26.50902342 2.38957269 24.24299151 0 21 C2.96175123 21.61277612 4.38058783 22.25372522 7 24 C3.71842138 18.82390176 0.54075781 14.14010271 -4 10 C-2.35 10 -0.7 10 1 10 C1 9.34 1 8.68 1 8 C1.66 8 2.32 8 3 8 C2.505 7.236875 2.01 6.47375 1.5 5.6875 C0 3 0 3 0 0 Z " fill="#7DECCC" transform="translate(185,62)"/>
<path d="M0 0 C1.65 0.33 3.3 0.66 5 1 C5 2.32 5 3.64 5 5 C4.34 5 3.68 5 3 5 C3.020625 6.0725 3.04125 7.145 3.0625 8.25 C2.97160883 13.70347003 2.97160883 13.70347003 2 16 C-1.01490557 17.00496852 -3.04181692 17.10335303 -6.1875 17.0625 C-7.08855469 17.05347656 -7.98960937 17.04445313 -8.91796875 17.03515625 C-9.60503906 17.02355469 -10.29210937 17.01195313 -11 17 C-11.33 16.01 -11.66 15.02 -12 14 C-12.66 13.67 -13.32 13.34 -14 13 C-13.01 9.7 -12.02 6.4 -11 3 C-10.01 3.33 -9.02 3.66 -8 4 C-8 4.66 -8 5.32 -8 6 C-5.69 5.34 -3.38 4.68 -1 4 C-0.67 2.68 -0.34 1.36 0 0 Z " fill="#7DEFCC" transform="translate(209,91)"/>
<path d="M0 0 C0.5625 1.9375 0.5625 1.9375 1 4 C0.67 4.33 0.34 4.66 0 5 C-0.23075082 6.34747084 -0.41153063 7.70377565 -0.5625 9.0625 C-0.706875 10.361875 -0.85125 11.66125 -1 13 C-0.01 12.67 0.98 12.34 2 12 C3.22969878 8.48809191 3.22969878 8.48809191 4 5 C4.33 5 4.66 5 5 5 C5.06058594 5.85464844 5.12117188 6.70929688 5.18359375 7.58984375 C5.26738281 8.69457031 5.35117188 9.79929687 5.4375 10.9375 C5.51871094 12.03964844 5.59992188 13.14179687 5.68359375 14.27734375 C5.70418084 16.91109903 5.70418084 16.91109903 7 18 C9.41583753 18.33374277 9.41583753 18.33374277 12 18 C12.495 17.505 12.99 17.01 13.5 16.5 C15 15 15 15 17.6875 14.8125 C18.450625 14.874375 19.21375 14.93625 20 15 C19.9375 18.3125 19.9375 18.3125 19 22 C14.15412612 25.29931838 10.06240438 25.24566206 4.33203125 24.8125 C0.90828446 23.6196368 -0.17825407 22.11473113 -2 19 C-2.34020589 16.1341978 -2.47338212 13.71772556 -2.375 10.875 C-2.37371094 10.15957031 -2.37242188 9.44414063 -2.37109375 8.70703125 C-2.30809871 4.96232636 -2.12091602 3.18137403 0 0 Z " fill="#F3F4F6" transform="translate(63,84)"/>
<path d="M0 0 C4.67692308 1.47692308 4.67692308 1.47692308 6.3125 4.125 C6.539375 4.74375 6.76625 5.3625 7 6 C4 7 4 7 1 6 C1.66 7.65 2.32 9.3 3 11 C2.34 11.66 1.68 12.32 1 13 C0.34 12.34 -0.32 11.68 -1 11 C-1.7425 11.61875 -2.485 12.2375 -3.25 12.875 C-6 15 -6 15 -7.984375 15.921875 C-10.24799657 17.13264933 -11.39939616 18.38294414 -13 20.375 C-14.73185699 22.48927212 -16.41007425 24.39928282 -18.375 26.3125 C-20.2312139 27.84965539 -20.2312139 27.84965539 -20 30 C-19.01 30.66 -18.02 31.32 -17 32 C-17.33 32.66 -17.66 33.32 -18 34 C-19.98 33.67 -21.96 33.34 -24 33 C-23.60791281 27.64147506 -21.6642613 23.85831875 -18 20 C-17.34 20 -16.68 20 -16 20 C-15.72671875 19.40977051 -15.4534375 18.81954102 -15.171875 18.21142578 C-14.03598069 16.06789857 -12.83470284 14.44417521 -11.25 12.6171875 C-10.7240625 12.00746094 -10.198125 11.39773437 -9.65625 10.76953125 C-9.1096875 10.14433594 -8.563125 9.51914063 -8 8.875 C-7.4534375 8.24207031 -6.906875 7.60914063 -6.34375 6.95703125 C-4.27933167 4.57384244 -2.23028116 2.23028116 0 0 Z M-3 7 C-2 10 -2 10 -2 10 Z " fill="#60C0A5" transform="translate(231,56)"/>
<path d="M0 0 C0.99 0.33 1.98 0.66 3 1 C3.68781096 4.31399829 3.9284568 5.80031824 3 9 C0.3689917 12.17168476 -2.45452224 14.91196161 -5.49609375 17.6796875 C-8.01891137 19.74442553 -8.01891137 19.74442553 -9 22 C-11.41419718 21.03432113 -12.80863755 20.24128309 -14.4375 18.1875 C-15 16 -15 16 -13.9375 13.5 C-11.86162667 10.82145377 -9.65919436 9.089367 -7 7 C-6.08111664 5.95737016 -5.18537604 4.89393934 -4.3125 3.8125 C-2 1 -2 1 0 0 Z " fill="#80F0CF" transform="translate(164,76)"/>
<path d="M0 0 C0.99 0 1.98 0 3 0 C4.905247 5.10334017 6.42589023 9.46342706 6 15 C9.3 14.34 12.6 13.68 16 13 C16 15.31 16 17.62 16 20 C14.68 19.34 13.36 18.68 12 18 C12 17.34 12 16.68 12 16 C9.24927823 17.52817876 7.04684208 18.95315792 4.8125 21.1875 C4.214375 21.785625 3.61625 22.38375 3 23 C2.34 23 1.68 23 1 23 C0.30048937 20.586238 -0.38483919 18.16989766 -1.0625 15.75 C-1.36124023 14.72712891 -1.36124023 14.72712891 -1.66601562 13.68359375 C-3.40009269 7.41657839 -3.40009269 7.41657839 -2 4 C-1.34 4.33 -0.68 4.66 0 5 C0 3.35 0 1.7 0 0 Z " fill="#2F373B" transform="translate(169,43)"/>
<path d="M0 0 C3.23486594 0.70177877 4.89181195 1.36476494 7 4 C7 4.66 7 5.32 7 6 C5.63875 6.309375 5.63875 6.309375 4.25 6.625 C0.23136422 8.32519206 -0.71980399 10.38313736 -3 14 C-3.99 14 -4.98 14 -6 14 C-5.67 15.65 -5.34 17.3 -5 19 C-5.86625 18.4740625 -5.86625 18.4740625 -6.75 17.9375 C-9.35801776 16.85082593 -10.39417629 17.06934867 -13 18 C-12.68423915 12.59132214 -9.52468969 9.86488188 -5.9375 6.1875 C-5.08575195 5.2912793 -5.08575195 5.2912793 -4.21679688 4.37695312 C-2.81990517 2.90962991 -1.41109872 1.4536658 0 0 Z " fill="#1F7158" transform="translate(178,72)"/>
<path d="M0 0 C2.31 0 4.62 0 7 0 C7.22151549 1.79008467 7.42682213 3.58218162 7.625 5.375 C7.74101563 6.37273437 7.85703125 7.37046875 7.9765625 8.3984375 C7.98429687 9.25695312 7.99203125 10.11546875 8 11 C7.34 11.66 6.68 12.32 6 13 C4.68 13 3.36 13 2 13 C1.67 16.96 1.34 20.92 1 25 C2.32 25 3.64 25 5 25 C4.34 23.35 3.68 21.7 3 20 C3.66 20 4.32 20 5 20 C5.33 19.01 5.66 18.02 6 17 C6.66 17.33 7.32 17.66 8 18 C7.67 20.64 7.34 23.28 7 26 C4.69 26 2.38 26 0 26 C0 17.42 0 8.84 0 0 Z " fill="#F2F2F3" transform="translate(111,82)"/>
<path d="M0 0 C0.33 0.99 0.66 1.98 1 3 C2.98 2.67 4.96 2.34 7 2 C3.98330975 6.4819398 1.35679484 9.73240387 -3 13 C-3.33 13.66 -3.66 14.32 -4 15 C-4.66 15 -5.32 15 -6 15 C-6 16.65 -6 18.3 -6 20 C-5.34 20.33 -4.68 20.66 -4 21 C-4.99 21 -5.98 21 -7 21 C-7 17.7 -7 14.4 -7 11 C-7.66 11 -8.32 11 -9 11 C-7.59155282 7.78475695 -5.89655214 5.67816132 -3.375 3.25 C-2.74335938 2.63640625 -2.11171875 2.0228125 -1.4609375 1.390625 C-0.73777344 0.70226562 -0.73777344 0.70226562 0 0 Z " fill="#6BCCB1" transform="translate(164,87)"/>
<path d="M0 0 C3.60244452 0.30878096 4.99345998 0.99447732 7.8125 3.375 C10 6 10 6 10 9 C9.34 9 8.68 9 8 9 C8 9.66 8 10.32 8 11 C7.18015625 10.90460938 6.3603125 10.80921875 5.515625 10.7109375 C4.43796875 10.60007812 3.3603125 10.48921875 2.25 10.375 C1.18265625 10.25898437 0.1153125 10.14296875 -0.984375 10.0234375 C-4.03792399 9.99970525 -5.46162421 10.38579015 -8 12 C-8.66 11.34 -9.32 10.68 -10 10 C-7.625 8.4375 -7.625 8.4375 -5 7 C-4.34 7.33 -3.68 7.66 -3 8 C-2.67 7.34 -2.34 6.68 -2 6 C-1.34 6 -0.68 6 0 6 C0.33 5.01 0.66 4.02 1 3 C0.01 3 -0.98 3 -2 3 C-1.34 2.01 -0.68 1.02 0 0 Z " fill="#7FF4CF" transform="translate(178,61)"/>
<path d="M0 0 C0.33 0 0.66 0 1 0 C2.00232104 8.16175708 2.11027172 16.28653058 2.125 24.5 C2.12951172 25.56283203 2.13402344 26.62566406 2.13867188 27.72070312 C2.13673828 28.73068359 2.13480469 29.74066406 2.1328125 30.78125 C2.13168457 31.68939453 2.13055664 32.59753906 2.12939453 33.53320312 C2.0088668 35.83096197 1.64662008 37.79879481 1 40 C-3.62921525 41.0161692 -7.34462607 40.83796731 -12 40 C-12 39.67 -12 39.34 -12 39 C-6.555 38.505 -6.555 38.505 -1 38 C-0.67 25.46 -0.34 12.92 0 0 Z " fill="#6FD5C0" transform="translate(231,68)"/>
<path d="M0 0 C-0.63808594 0.19335938 -1.27617187 0.38671875 -1.93359375 0.5859375 C-3.17302734 0.97652344 -3.17302734 0.97652344 -4.4375 1.375 C-5.67306641 1.75785156 -5.67306641 1.75785156 -6.93359375 2.1484375 C-9.17798016 2.80882227 -9.17798016 2.80882227 -10 5 C-8.35 5.33 -6.7 5.66 -5 6 C-5.59283621 9.39192363 -6.76743189 11.2107757 -9.0625 13.75 C-9.61035156 14.36359375 -10.15820312 14.9771875 -10.72265625 15.609375 C-11.14417969 16.06828125 -11.56570312 16.5271875 -12 17 C-13 15 -13 15 -12.375 11.5625 C-11.60216869 8.07959451 -11.60216869 8.07959451 -13.4375 6.0625 C-13.953125 5.711875 -14.46875 5.36125 -15 5 C-14.00962074 2.43353332 -13.42378151 1.23397975 -10.9765625 -0.1171875 C-10.20054687 -0.36726563 -9.42453125 -0.61734375 -8.625 -0.875 C-7.85414063 -1.14054687 -7.08328125 -1.40609375 -6.2890625 -1.6796875 C-3.52058694 -2.0670851 -2.33218342 -1.45894579 0 0 Z " fill="#7BD5BF" transform="translate(231,40)"/>
<path d="M0 0 C3 1 3 1 4.6875 4.0625 C5.120625 5.031875 5.55375 6.00125 6 7 C6 6.34 6 5.68 6 5 C6.66 5 7.32 5 8 5 C8.33 4.34 8.66 3.68 9 3 C10.00276773 4.47729175 11.00214454 5.95688577 12 7.4375 C12.556875 8.26121094 13.11375 9.08492187 13.6875 9.93359375 C15 12 15 12 15 13 C9.88880198 13.88124104 9.88880198 13.88124104 7 13 C5.07081219 10.55141547 3.7653324 8.09456275 2.421875 5.28515625 C1.21558402 2.82949636 1.21558402 2.82949636 -1.171875 2.18359375 C-1.77515625 2.12300781 -2.3784375 2.06242187 -3 2 C-2.01 1.34 -1.02 0.68 0 0 Z " fill="#EFF2F6" transform="translate(119,95)"/>
<path d="M0 0 C0.66 0 1.32 0 2 0 C1.67 1.65 1.34 3.3 1 5 C2.32 5.33 3.64 5.66 5 6 C3.48021894 9.03956213 2.48202867 10.72283352 -0.5 12.4375 C-1.325 12.623125 -2.15 12.80875 -3 13 C-6 11 -6 11 -6.6875 8.875 C-6.790625 8.25625 -6.89375 7.6375 -7 7 C-6.21625 6.5875 -5.4325 6.175 -4.625 5.75 C-1.94108344 3.9607223 -1.11901051 2.95011861 0 0 Z M-2 7 C-1 9 -1 9 -1 9 Z " fill="#64D8B9" transform="translate(206,84)"/>
<path d="M0 0 C1.32 0.99 2.64 1.98 4 3 C3.34 4.32 2.68 5.64 2 7 C-0.64 6.34 -3.28 5.68 -6 5 C-6 9.29 -6 13.58 -6 18 C-7.32 18 -8.64 18 -10 18 C-10 17.34 -10 16.68 -10 16 C-9.34 16 -8.68 16 -8 16 C-8.02320313 15.31292969 -8.04640625 14.62585938 -8.0703125 13.91796875 C-8.08835938 13.01691406 -8.10640625 12.11585937 -8.125 11.1875 C-8.14820313 10.29417969 -8.17140625 9.40085937 -8.1953125 8.48046875 C-8 6 -8 6 -6 3 C-2.875 2.3125 -2.875 2.3125 0 2 C0 1.34 0 0.68 0 0 Z " fill="#67C6B0" transform="translate(185,76)"/>
<path d="M0 0 C0 0.66 0 1.32 0 2 C-0.99 2 -1.98 2 -3 2 C-3 2.99 -3 3.98 -3 5 C-2.01 5 -1.02 5 0 5 C-3.59556704 9.12432689 -5.63775713 10.31545836 -11 11 C-13.32219658 12.44730093 -13.32219658 12.44730093 -15 14 C-13.60363343 9.55844984 -11.5249864 7.25340206 -8.0625 4.1875 C-7.18722656 3.39730469 -6.31195313 2.60710938 -5.41015625 1.79296875 C-3 0 -3 0 0 0 Z " fill="#75DCBF" transform="translate(181,59)"/>
<path d="M0 0 C0 1.98 0 3.96 0 6 C-1.32 5.34 -2.64 4.68 -4 4 C-4 3.34 -4 2.68 -4 2 C-6.75072177 3.52817876 -8.95315792 4.95315792 -11.1875 7.1875 C-11.785625 7.785625 -12.38375 8.38375 -13 9 C-13.66 9 -14.32 9 -15 9 C-15.33 7.02 -15.66 5.04 -16 3 C-15.34 3 -14.68 3 -14 3 C-13.67 2.34 -13.34 1.68 -13 1 C-13 1.99 -13 2.98 -13 4 C-12.34 4 -11.68 4 -11 4 C-10.67 3.01 -10.34 2.02 -10 1 C-8.22265625 0.234375 -8.22265625 0.234375 -6.0625 -0.25 C-5.35222656 -0.42015625 -4.64195312 -0.5903125 -3.91015625 -0.765625 C-2 -1 -2 -1 0 0 Z " fill="#205150" transform="translate(185,57)"/>
<path d="M0 0 C4.67692308 1.47692308 4.67692308 1.47692308 6.3125 4.125 C6.539375 4.74375 6.76625 5.3625 7 6 C4 7 4 7 1 6 C1.66 7.65 2.32 9.3 3 11 C0.625 10.3125 0.625 10.3125 -2 9 C-3.3125 6.375 -3.3125 6.375 -4 4 C-2.68 2.68 -1.36 1.36 0 0 Z " fill="#1A775E" transform="translate(231,56)"/>
<path d="M0 0 C1.98 0 3.96 0 6 0 C5.6875 3.375 5.6875 3.375 5 7 C4.01 7.66 3.02 8.32 2 9 C0 8 0 8 -1 6 C-2.65 6.33 -4.3 6.66 -6 7 C-6.33 6.34 -6.66 5.68 -7 5 C-5.5459375 4.5978125 -5.5459375 4.5978125 -4.0625 4.1875 C-3.051875 3.795625 -2.04125 3.40375 -1 3 C-0.67 2.01 -0.34 1.02 0 0 Z " fill="#ECEEF0" transform="translate(102,98)"/>
<path d="M0 0 C2.15812052 1.04425187 3.4415629 2.06757862 4.9375 3.9375 C4.9375 4.5975 4.9375 5.2575 4.9375 5.9375 C1.6375 6.5975 -1.6625 7.2575 -5.0625 7.9375 C-5.3925 6.6175 -5.7225 5.2975 -6.0625 3.9375 C-3.12019231 -0.09455128 -3.12019231 -0.09455128 0 0 Z " fill="#156B5B" transform="translate(180.0625,72.0625)"/>
<path d="M0 0 C0.598125 0.165 1.19625 0.33 1.8125 0.5 C4.11344336 1.1114124 4.11344336 1.1114124 7 1 C7.33 1.99 7.66 2.98 8 4 C10.00016466 5.20882096 10.00016466 5.20882096 12 6 C6.6360424 8.19434629 6.6360424 8.19434629 3.75 7.3125 C2 6 2 6 0 3 C0 2.01 0 1.02 0 0 Z " fill="#F9F9FB" transform="translate(17,100)"/>
<path d="M0 0 C-0.97839844 -0.04640625 -1.95679687 -0.0928125 -2.96484375 -0.140625 C-14.05946588 -0.48324556 -14.05946588 -0.48324556 -24 4 C-25.96540284 5.90500039 -27.41267954 7.74702903 -29 10 C-29.66 9.67 -30.32 9.34 -31 9 C-23.98486384 -0.2292885 -11.30365896 -7.53577264 0 0 Z " fill="#22282D" transform="translate(108,19)"/>
<path d="M0 0 C1.65 0.66 3.3 1.32 5 2 C5 2.99 5 3.98 5 5 C1.22568849 7.49339232 -2.52882849 7.19408134 -6.875 7.0625 C-11.69850308 6.9416887 -16.24784932 7.03914195 -21 8 C-20 6 -20 6 -18.27734375 5.3828125 C-15.66931759 4.94441359 -13.2072284 4.86766372 -10.5625 4.875 C-9.63566406 4.87242188 -8.70882812 4.86984375 -7.75390625 4.8671875 C-5.07134019 4.99655948 -2.61431282 5.40217166 0 6 C0 4.02 0 2.04 0 0 Z " fill="#25282F" transform="translate(52,5)"/>
<path d="M0 0 C3.3734229 1.44575267 5.61595146 3.2049086 8 6 C8.75 8.25 8.75 8.25 9 10 C6.525 9.01 6.525 9.01 4 8 C4 8.66 4 9.32 4 10 C0.2047869 8.50902342 -1.61042731 6.24299151 -4 3 C-1.03824877 3.61277612 0.38058783 4.25372522 3 6 C2.2575 5.071875 2.2575 5.071875 1.5 4.125 C0 2 0 2 0 0 Z " fill="#6CD6B2" transform="translate(189,80)"/>
<path d="M0 0 C0.99 0.33 1.98 0.66 3 1 C2.29875 1.680625 1.5975 2.36125 0.875 3.0625 C-1.76684614 5.6968409 -4.1765399 8.49197469 -6.5703125 11.3515625 C-8 13 -8 13 -9.6171875 14.5859375 C-11.11314503 15.97161599 -11.11314503 15.97161599 -12 18 C-12.66 18 -13.32 18 -14 18 C-12.68180513 14.0861843 -11.13022856 11.81244032 -8.125 9 C-5.15880479 6.1524526 -2.47391282 3.29855042 0 0 Z " fill="#74CEBB" transform="translate(162,74)"/>
<path d="M0 0 C0.66 0.33 1.32 0.66 2 1 C2.33 1.99 2.66 2.98 3 4 C5.01508358 4.73323796 5.01508358 4.73323796 7 5 C6.67 5.99 6.34 6.98 6 8 C5.34 7.34 4.68 6.68 4 6 C2.02 7.32 0.04 8.64 -2 10 C-2.66 8.35 -3.32 6.7 -4 5 C-2.68 3.35 -1.36 1.7 0 0 Z " fill="#54AD96" transform="translate(226,61)"/>
<path d="M0 0 C0.33 0 0.66 0 1 0 C1 5.61 1 11.22 1 17 C2.32 17 3.64 17 5 17 C4.34 15.35 3.68 13.7 3 12 C3.66 12 4.32 12 5 12 C5.33 11.01 5.66 10.02 6 9 C6.66 9.33 7.32 9.66 8 10 C7.67 12.64 7.34 15.28 7 18 C4.69 18 2.38 18 0 18 C0 12.06 0 6.12 0 0 Z " fill="#E9EAEC" transform="translate(111,90)"/>
<path d="M0 0 C2 3 2 3 2 7 C-0.875 7.1875 -0.875 7.1875 -4 7 C-4.66 6.01 -5.32 5.02 -6 4 C-9.58357241 3.74984127 -9.58357241 3.74984127 -13 4 C-13 3.34 -13 2.68 -13 2 C-10.47946405 0.73973202 -9.1457902 1.08125555 -6.375 1.4375 C-5.14910156 1.59025391 -5.14910156 1.59025391 -3.8984375 1.74609375 C-2.95871094 1.87177734 -2.95871094 1.87177734 -2 2 C-2.33 3.32 -2.66 4.64 -3 6 C-2.01 6 -1.02 6 0 6 C0 4.02 0 2.04 0 0 Z " fill="#ECEDF1" transform="translate(106,85)"/>
<path d="M0 0 C0 1.98 0 3.96 0 6 C-1.65 6 -3.3 6 -5 6 C-5.33 5.01 -5.66 4.02 -6 3 C-6.99 2.34 -7.98 1.68 -9 1 C-3.375 -1.125 -3.375 -1.125 0 0 Z " fill="#FAFAFA" transform="translate(37,84)"/>
<path d="M0 0 C0.33 0.99 0.66 1.98 1 3 C2.98 2.67 4.96 2.34 7 2 C4.64619703 5.92300495 2.35535069 6.83857315 -2 8 C-2.6875 5.6875 -2.6875 5.6875 -3 3 C-1.5625 1.1875 -1.5625 1.1875 0 0 Z " fill="#56C0A6" transform="translate(164,87)"/>
<path d="M0 0 C0.66 0.33 1.32 0.66 2 1 C2 1.66 2 2.32 2 3 C2.33 3.99 2.66 4.98 3 6 C1.68 7.32 0.36 8.64 -1 10 C-3 9 -3 9 -3.875 6.6875 C-4 4 -4 4 -2.0625 1.6875 C-1.381875 1.130625 -0.70125 0.57375 0 0 Z " fill="#72E4C2" transform="translate(226,69)"/>
<path d="M0 0 C2.97 0 5.94 0 9 0 C9 1.65 9 3.3 9 5 C8.67 4.34 8.34 3.68 8 3 C5.36 3.66 2.72 4.32 0 5 C-0.33 4.01 -0.66 3.02 -1 2 C-0.67 1.34 -0.34 0.68 0 0 Z " fill="#FAF9FB" transform="translate(40,84)"/>
<path d="M0 0 C1.65 1.65 3.3 3.3 5 5 C4.67 5.99 4.34 6.98 4 8 C3.01 7.34 2.02 6.68 1 6 C-1.15274948 6.30840599 -1.15274948 6.30840599 -3 7 C-2.25 2.25 -2.25 2.25 0 0 Z " fill="#358E7C" transform="translate(168,83)"/>
<path d="M0 0 C2.01822917 0.29296875 4.03645833 0.5859375 6.0546875 0.87890625 C8.08140667 1.1684297 8.08140667 1.1684297 10 0 C10 0.99 10 1.98 10 3 C5.58774263 4.47075246 2.51718381 5.36884358 -2 4 C-1.34 2.68 -0.68 1.36 0 0 Z " fill="#194E49" transform="translate(230,34)"/>
<path d="M0 0 C0.99 0.66 1.98 1.32 3 2 C3 4 3 4 0.625 6.5625 C-2 9 -2 9 -4 10 C-4.8125 8.375 -4.8125 8.375 -5 6 C-3.53181864 3.75390165 -1.84147142 1.97621323 0 0 Z " fill="#51B49D" transform="translate(221,67)"/>
<path d="M0 0 C0 2.1875 0 2.1875 -1 5 C-3.50803179 6.96188534 -6.19641043 8.49921743 -9 10 C-7.6834994 5.81113445 -4.97532335 0 0 0 Z " fill="#73D7BD" transform="translate(211,67)"/>
<path d="M0 0 C0.66 0 1.32 0 2 0 C2.02688151 1.64574566 2.04634123 3.29161413 2.0625 4.9375 C2.07410156 5.85402344 2.08570313 6.77054688 2.09765625 7.71484375 C2 10 2 10 1 11 C-0.99958364 11.04080783 -3.00045254 11.04254356 -5 11 C-3.625 9.5 -3.625 9.5 -2 8 C-1.34 8 -0.68 8 0 8 C0 5.36 0 2.72 0 0 Z " fill="#15292C" transform="translate(237,25)"/>
<path d="M0 0 C0.66 0 1.32 0 2 0 C2.66 1.98 3.32 3.96 4 6 C3.34 6 2.68 6 2 6 C2.33 6.99 2.66 7.98 3 9 C2.67 9.66 2.34 10.32 2 11 C1.34 11 0.68 11 0 11 C-0.19491452 9.54263913 -0.38069358 8.08405407 -0.5625 6.625 C-0.66691406 5.81289062 -0.77132812 5.00078125 -0.87890625 4.1640625 C-1 2 -1 2 0 0 Z " fill="#63C2AC" transform="translate(174,95)"/>
<path d="M0 0 C0.33 0 0.66 0 1 0 C1.66 3.3 2.32 6.6 3 10 C1.02 9.34 -0.96 8.68 -3 8 C-2.37240135 5.07120629 -1.41377341 2.63904371 0 0 Z " fill="#60BCA5" transform="translate(216,98)"/>
<path d="M0 0 C0.66 0.66 1.32 1.32 2 2 C1.9765625 4.6015625 1.9765625 4.6015625 1.625 7.625 C1.51414063 8.62789062 1.40328125 9.63078125 1.2890625 10.6640625 C1.19367188 11.43492188 1.09828125 12.20578125 1 13 C-0.32 11.68 -1.64 10.36 -3 9 C-2.01 6.03 -1.02 3.06 0 0 Z " fill="#6DD1BC" transform="translate(198,95)"/>
<path d="M0 0 C0.99 0 1.98 0 3 0 C3.33 1.98 3.66 3.96 4 6 C2.02 6 0.04 6 -2 6 C-1.34 4.02 -0.68 2.04 0 0 Z " fill="#125B54" transform="translate(178,72)"/>
<path d="M0 0 C0 1.98 0 3.96 0 6 C-1.32 5.34 -2.64 4.68 -4 4 C-4 3.34 -4 2.68 -4 2 C-5.32 2.33 -6.64 2.66 -8 3 C-8 2.01 -8 1.02 -8 0 C-2.25 -1.125 -2.25 -1.125 0 0 Z " fill="#2D6B65" transform="translate(185,57)"/>
<path d="M0 0 C2.0625 0.1875 2.0625 0.1875 4 1 C4.33 1.99 4.66 2.98 5 4 C2.03 4.66 -0.94 5.32 -4 6 C-2 2 -2 2 0 0 Z " fill="#16282D" transform="translate(178,53)"/>
<path d="M0 0 C4 6 4 6 4 10 C5.32 10.33 6.64 10.66 8 11 C5.525 12.485 5.525 12.485 3 14 C0.96006486 9.07015675 -0.40652968 5.42039575 0 0 Z " fill="#262C33" transform="translate(172,42)"/>
<path d="M0 0 C0.598125 0.185625 1.19625 0.37125 1.8125 0.5625 C4.16408762 1.22093687 4.16408762 1.22093687 7 0 C6 3 6 3 3 5 C0.3125 4.625 0.3125 4.625 -2 4 C-1.34 2.68 -0.68 1.36 0 0 Z " fill="#5DCDB4" transform="translate(160,93)"/>
<path d="M0 0 C1.32 0.99 2.64 1.98 4 3 C3.34 4.32 2.68 5.64 2 7 C0.02 6.01 -1.96 5.02 -4 4 C-2.68 3.34 -1.36 2.68 0 2 C0 1.34 0 0.68 0 0 Z " fill="#47AA92" transform="translate(185,76)"/>
<path d="M0 0 C0.66 0 1.32 0 2 0 C2 0.66 2 1.32 2 2 C4.31 2 6.62 2 9 2 C9.33 2.66 9.66 3.32 10 4 C6.37 4 2.74 4 -1 4 C-1.33 3.34 -1.66 2.68 -2 2 C-1.34 2 -0.68 2 0 2 C0 1.34 0 0.68 0 0 Z " fill="#80E4CA" transform="translate(161,104)"/>
<path d="M0 0 C0.33 0 0.66 0 1 0 C1 4.29 1 8.58 1 13 C-1.31 12.67 -3.62 12.34 -6 12 C-5.36578125 11.77570312 -4.7315625 11.55140625 -4.078125 11.3203125 C-1.77983843 10.16214243 -1.77983843 10.16214243 -1.171875 7.6171875 C-1.03265625 6.71226563 -0.8934375 5.80734375 -0.75 4.875 C-0.60046875 3.96492188 -0.4509375 3.05484375 -0.296875 2.1171875 C-0.19890625 1.41851563 -0.1009375 0.71984375 0 0 Z " fill="#262A2F" transform="translate(18,15)"/>
<path d="M0 0 C1.98 1.65 3.96 3.3 6 5 C5.67 5.66 5.34 6.32 5 7 C2.03 6.505 2.03 6.505 -1 6 C-0.67 4.02 -0.34 2.04 0 0 Z " fill="#56C4AB" transform="translate(208,83)"/>
<path d="M0 0 C0.66 0 1.32 0 2 0 C1.50168276 3.68754757 0.89932357 5.60490662 -2 8 C-2.99 7.67 -3.98 7.34 -5 7 C-4.21654285 5.82780457 -3.42297164 4.66236332 -2.625 3.5 C-2.18414062 2.8503125 -1.74328125 2.200625 -1.2890625 1.53125 C-0.65097656 0.77328125 -0.65097656 0.77328125 0 0 Z " fill="#428776" transform="translate(213,59)"/>
<path d="M0 0 C2 3 2 3 2 6 C-2.62921525 7.0161692 -6.34462607 6.83796731 -11 6 C-11 5.67 -11 5.34 -11 5 C-5.555 4.505 -5.555 4.505 0 4 C0 2.68 0 1.36 0 0 Z " fill="#7BDBC8" transform="translate(230,102)"/>
<path d="M0 0 C2.375 -0.1875 2.375 -0.1875 5 0 C5.66 0.99 6.32 1.98 7 3 C6.01 4.485 6.01 4.485 5 6 C2.375 6.1875 2.375 6.1875 0 6 C0.66 4.68 1.32 3.36 2 2 C1.34 1.34 0.68 0.68 0 0 Z " fill="#F1F2F4" transform="translate(55,82)"/>
<path d="M0 0 C1.15224028 0.92961422 2.29659176 1.8690125 3.4375 2.8125 C4.07558594 3.33457031 4.71367187 3.85664062 5.37109375 4.39453125 C7 6 7 6 8 9 C7.01 8.67 6.02 8.34 5 8 C5 7.34 5 6.68 5 6 C4.38125 5.731875 3.7625 5.46375 3.125 5.1875 C1 4 1 4 -1 1 C-0.67 0.67 -0.34 0.34 0 0 Z " fill="#6ECAB7" transform="translate(185,62)"/>
<path d="M0 0 C2.475 0.99 2.475 0.99 5 2 C5 2.99 5 3.98 5 5 C3.35 5.66 1.7 6.32 0 7 C0 4.69 0 2.38 0 0 Z " fill="#141623" transform="translate(52,5)"/>
<path d="M0 0 C1.65 0 3.3 0 5 0 C4.67 4.95 4.34 9.9 4 15 C3.67 15 3.34 15 3 15 C3 10.71 3 6.42 3 2 C2.01 1.67 1.02 1.34 0 1 C0 0.67 0 0.34 0 0 Z " fill="#E7E8EF" transform="translate(43,87)"/>
<path d="M0 0 C0.66 0.33 1.32 0.66 2 1 C1.67 2.65 1.34 4.3 1 6 C-0.65 6.33 -2.3 6.66 -4 7 C-2.79618552 4.50638429 -1.54571278 2.31856917 0 0 Z " fill="#33947F" transform="translate(226,61)"/>
<path d="M0 0 C1.32 0.66 2.64 1.32 4 2 C0.375 7.75 0.375 7.75 -3 10 C-2.690625 9.278125 -2.38125 8.55625 -2.0625 7.8125 C-1.07439461 5.19692691 -0.4712246 2.74881018 0 0 Z " fill="#6FCEB4" transform="translate(221,47)"/>
<path d="M0 0 C0.99 0.33 1.98 0.66 3 1 C2.67 2.32 2.34 3.64 2 5 C3.32 5.33 4.64 5.66 6 6 C5.67 6.66 5.34 7.32 5 8 C2.00675737 6.9024777 1.15389099 6.32317108 -0.25 3.375 C-0.4975 2.59125 -0.745 1.8075 -1 1 C-0.67 0.67 -0.34 0.34 0 0 Z " fill="#1F735E" transform="translate(228,59)"/>
<path d="M0 0 C1.485 0.99 1.485 0.99 3 2 C3 2.99 3 3.98 3 5 C2.34 5 1.68 5 1 5 C1 7.31 1 9.62 1 12 C0.67 12 0.34 12 0 12 C0 8.04 0 4.08 0 0 Z " fill="#70DFC1" transform="translate(211,91)"/>
<path d="M0 0 C0.66 0.33 1.32 0.66 2 1 C0.35 2.98 -1.3 4.96 -3 7 C-3.99 6.67 -4.98 6.34 -6 6 C-4.71034824 4.62437146 -3.37310707 3.29233607 -2 2 C-1.34 2 -0.68 2 0 2 C0 1.34 0 0.68 0 0 Z " fill="#2D4E49" transform="translate(211,59)"/>
<path d="M0 0 C0.33 0.66 0.66 1.32 1 2 C3.52733235 2.65555119 3.52733235 2.65555119 6 3 C5.34 3.66 4.68 4.32 4 5 C3.01 4.67 2.02 4.34 1 4 C1 4.66 1 5.32 1 6 C0.34 6 -0.32 6 -1 6 C-0.67 4.02 -0.34 2.04 0 0 Z " fill="#185D4D" transform="translate(231,58)"/>
<path d="" fill="#000000" transform="translate(0,0)"/>
<path d="" fill="#000000" transform="translate(0,0)"/>
<path d="" fill="#000000" transform="translate(0,0)"/>
<path d="" fill="#000000" transform="translate(0,0)"/>
<path d="" fill="#000000" transform="translate(0,0)"/>
<path d="" fill="#000000" transform="translate(0,0)"/>
<path d="" fill="#000000" transform="translate(0,0)"/>
<path d="" fill="#000000" transform="translate(0,0)"/>
</svg>
